<svg
  width="28"
  height="28"
  viewBox="0 0 28 28"
  fill="currentColor"
  xmlns="http://www.w3.org/2000/svg"
  aria-hidden="true"
>
  <path
    fill-rule="evenodd"
    clip-rule="evenodd"
    d="M14 0.666656C6.63996 0.666656 0.666626 6.63999 0.666626 14C0.666626 21.36 6.63996 27.3333 14 27.3333C21.36 27.3333 27.3333 21.36 27.3333 14C27.3333 6.63999 21.36 0.666656 14 0.666656ZM7.42663 22.3733C7.99996 21.1733 11.4933 20 14 20C16.5066 20 20.0133 21.1733 20.5733 22.3733C18.76 23.8133 16.48 24.6667 14 24.6667C11.52 24.6667 9.23996 23.8133 7.42663 22.3733ZM22.48 20.44C20.5733 18.12 15.9466 17.3333 14 17.3333C12.0533 17.3333 7.42663 18.12 5.51996 20.44C4.15996 18.6533 3.33329 16.4267 3.33329 14C3.33329 8.11999 8.11996 3.33332 14 3.33332C19.88 3.33332 24.6666 8.11999 24.6666 14C24.6666 16.4267 23.84 18.6533 22.48 20.44V20.44ZM14 5.99999C11.4133 5.99999 9.33329 8.07999 9.33329 10.6667C9.33329 13.2533 11.4133 15.3333 14 15.3333C16.5866 15.3333 18.6666 13.2533 18.6666 10.6667C18.6666 8.07999 16.5866 5.99999 14 5.99999ZM14 12.6667C12.8933 12.6667 12 11.7733 12 10.6667C12 9.55999 12.8933 8.66666 14 8.66666C15.1066 8.66666 16 9.55999 16 10.6667C16 11.7733 15.1066 12.6667 14 12.6667Z"
    fill="currentColor"
  />
  <mask
    id="mask0_342_32"
    style="mask-type: alpha"
    maskUnits="userSpaceOnUse"
    x="0"
    y="0"
    width="28"
    height="28"
  >
    <path
      fill-rule="evenodd"
      clip-rule="evenodd"
      d="M14 0.666656C6.63996 0.666656 0.666626 6.63999 0.666626 14C0.666626 21.36 6.63996 27.3333 14 27.3333C21.36 27.3333 27.3333 21.36 27.3333 14C27.3333 6.63999 21.36 0.666656 14 0.666656ZM7.42663 22.3733C7.99996 21.1733 11.4933 20 14 20C16.5066 20 20.0133 21.1733 20.5733 22.3733C18.76 23.8133 16.48 24.6667 14 24.6667C11.52 24.6667 9.23996 23.8133 7.42663 22.3733ZM22.48 20.44C20.5733 18.12 15.9466 17.3333 14 17.3333C12.0533 17.3333 7.42663 18.12 5.51996 20.44C4.15996 18.6533 3.33329 16.4267 3.33329 14C3.33329 8.11999 8.11996 3.33332 14 3.33332C19.88 3.33332 24.6666 8.11999 24.6666 14C24.6666 16.4267 23.84 18.6533 22.48 20.44ZM14 5.99999C11.4133 5.99999 9.33329 8.07999 9.33329 10.6667C9.33329 13.2533 11.4133 15.3333 14 15.3333C16.5866 15.3333 18.6666 13.2533 18.6666 10.6667C18.6666 8.07999 16.5866 5.99999 14 5.99999ZM14 12.6667C12.8933 12.6667 12 11.7733 12 10.6667C12 9.55999 12.8933 8.66666 14 8.66666C15.1066 8.66666 16 9.55999 16 10.6667C16 11.7733 15.1066 12.6667 14 12.6667Z"
      fill="currentColor"
    />
  </mask>
  <g mask="url(#mask0_342_32)"></g>
</svg>
