<svg
  width="21"
  height="21"
  viewBox="0 0 21 21"
  fill="none"
  xmlns="http://www.w3.org/2000/svg"
  aria-hidden="true"
>
  <path
    d="M6.62886 0.945999L15.0289 0.945999C18.2321 0.945999 20.8289 3.54275 20.8289 6.746V15.146C20.8289 18.3493 18.2321 20.946 15.0289 20.946H6.62886C3.42561 20.946 0.828857 18.3493 0.828857 15.146L0.828857 6.746C0.828857 3.54275 3.42561 0.945999 6.62886 0.945999ZM6.42886 2.94598C4.44063 2.94598 2.82886 4.55776 2.82886 6.54598L2.82886 15.346C2.82886 17.3342 4.44063 18.946 6.42886 18.946H15.2289C17.2171 18.946 18.8289 17.3342 18.8289 15.346V6.54598C18.8289 4.55776 17.2171 2.94598 15.2289 2.94598L6.42886 2.94598ZM16.0789 4.44598C16.7693 4.44598 17.3289 5.00563 17.3289 5.69598C17.3289 6.38634 16.7693 6.94598 16.0789 6.94598C15.3885 6.94598 14.8289 6.38634 14.8289 5.69598C14.8289 5.00563 15.3885 4.44598 16.0789 4.44598ZM10.8289 5.94598C13.5903 5.94598 15.8289 8.18456 15.8289 10.946C15.8289 13.7074 13.5903 15.946 10.8289 15.946C8.06743 15.946 5.82886 13.7074 5.82886 10.946C5.82886 8.18456 8.06743 5.94598 10.8289 5.94598ZM10.8289 7.94598C9.17196 7.94598 7.82886 9.28918 7.82886 10.946C7.82886 12.6029 9.17196 13.946 10.8289 13.946C12.4858 13.946 13.8289 12.6029 13.8289 10.946C13.8289 9.28918 12.4858 7.94598 10.8289 7.94598Z"
    fill="white"
  />
</svg>
