<svg
  width="22"
  height="18"
  viewBox="0 0 22 18"
  fill="currentColor"
  xmlns="http://www.w3.org/2000/svg"
  aria-hidden="true"
>
  <path
    d="M21.288 2.95836C20.5184 3.29971 19.6912 3.5304 18.8232 3.63413C19.7091 3.10299 20.3897 2.26196 20.7101 1.25976C19.8808 1.75162 18.9624 2.10876 17.9848 2.30118C17.202 1.4671 16.0867 0.945984 14.8523 0.945984C12.4822 0.945984 10.5605 2.86745 10.5605 5.23753C10.5605 5.57388 10.5985 5.90144 10.6717 6.21558C7.10495 6.03658 3.94261 4.32801 1.82595 1.73149C1.45651 2.36533 1.24487 3.10254 1.24487 3.88907C1.24487 5.37802 2.0025 6.69161 3.15409 7.46128C2.45065 7.43888 1.78882 7.24588 1.21025 6.92444C1.20984 6.94237 1.20984 6.96028 1.20984 6.97838C1.20984 9.05778 2.68919 10.7923 4.65245 11.1866C4.29235 11.2847 3.9132 11.3372 3.5218 11.3372C3.24526 11.3372 2.97641 11.3102 2.71432 11.2602C3.26047 12.9651 4.84539 14.206 6.7234 14.2405C5.25462 15.3917 3.40413 16.0778 1.39339 16.0778C1.04698 16.0778 0.705369 16.0574 0.369629 16.0177C2.26889 17.2354 4.52477 17.946 6.94836 17.946C14.8422 17.946 19.159 11.4065 19.159 5.73516C19.159 5.54912 19.1548 5.36403 19.1465 5.17993C19.9851 4.57484 20.7127 3.819 21.288 2.95836Z"
  />
</svg>
